<?xml version="1.0" standalone="no"?><!DOCTYPE svg PUBLIC "-//W3C//DTD SVG 1.1//EN" "http://www.w3.org/Graphics/SVG/1.1/DTD/svg11.dtd"><svg t="1585460679793" class="icon" viewBox="0 0 1024 1024" version="1.1" xmlns="http://www.w3.org/2000/svg" p-id="839" xmlns:xlink="http://www.w3.org/1999/xlink" width="200" height="200"><defs><style type="text/css"></style></defs><path d="M588.1 610.6h-153c-49 0-88.8-39.8-88.8-88.8V164.6c0-49 39.8-88.8 88.8-88.8h153c49 0 88.8 39.8 88.8 88.8v357.2c0 48.9-39.8 88.8-88.8 88.8z m-153-487.2c-22.7 0-41.2 18.5-41.2 41.2v357.2c0 22.7 18.5 41.2 41.2 41.2h153c22.7 0 41.2-18.5 41.2-41.2V164.6c0-22.7-18.5-41.2-41.2-41.2h-153z" fill="#d81e06" p-id="840"></path><path d="M509.8 899c-13.2 0-23.8-10.7-23.8-23.8V731.9c0-13.2 10.7-23.8 23.8-23.8s23.8 10.7 23.8 23.8v143.3c0 13.1-10.6 23.8-23.8 23.8z" fill="#d81e06" p-id="841"></path><path d="M514.3 744.9c-144.7 0-265.5-124.1-281-288.6-1.2-13.1 8.4-24.7 21.5-25.9 13.1-1.2 24.7 8.4 25.9 21.5 13.2 139.9 113.6 245.5 233.6 245.5 119.9 0 220.3-105.4 233.5-245.3 1.2-13.1 12.9-22.6 26-21.5 13.1 1.2 22.7 12.9 21.5 26-15.6 164.3-136.4 288.3-281 288.3z" fill="#d81e06" p-id="842"></path><path d="M705 907.9H309.2c-13.2 0-23.8-10.7-23.8-23.8s10.7-23.8 23.8-23.8H705c13.2 0 23.8 10.7 23.8 23.8s-10.6 23.8-23.8 23.8z" fill="#d81e06" p-id="843"></path></svg>